name rise37.2698peak67.6939fall79.5734.mot
datacolumns 19
datarows 30
range 4.98664700000000 5.03498000000000
endheader
time	ground_force1_vx	ground_force1_vy	ground_force1_vz	ground_force1_px	ground_force1_py	ground_force1_pz	ground_force2_vx	ground_force2_vy	ground_force2_vz	ground_force2_px	ground_force2_py	ground_force2_pz	ground_torque1_x	ground_torque1_y	ground_torque1_z	ground_torque2_x	ground_torque2_y	ground_torque2_z	
4.98664700000000	-18.45026200000000	711.69024100000001	53.20120300000000	0.15763700000000	0.00000000000000	0.14010000000000	0.00000000000000	0.00000000000000	0.00000000000000	0.00000000000000	0.00000000000000	0.00000000000000	0.00000000000000	21.83814600000000	0.00000000000000	0.00000000000000	0.00000000000000	0.00000000000000	
4.98831300000000	-19.08252600000000	712.57342400000005	53.22535300000000	0.15642000000000	0.00000000000000	0.14010700000000	0.00000000000000	0.00000000000000	0.00000000000000	0.00000000000000	0.00000000000000	0.00000000000000	0.00000000000000	21.90828100000000	0.00000000000000	0.00000000000000	0.00000000000000	0.00000000000000	
4.98998500000000	-19.71812500000000	713.49064099999998	53.25409600000000	0.15518800000000	0.00000000000000	0.14011400000000	0.00000000000000	0.00000000000000	0.00000000000000	0.00000000000000	0.00000000000000	0.00000000000000	0.00000000000000	21.98005200000000	0.00000000000000	0.00000000000000	0.00000000000000	0.00000000000000	
4.99165000000000	-20.35646000000000	714.44200699999999	53.28738700000000	0.15394300000000	0.00000000000000	0.14012300000000	0.00000000000000	0.00000000000000	0.00000000000000	0.00000000000000	0.00000000000000	0.00000000000000	0.00000000000000	22.05336100000000	0.00000000000000	0.00000000000000	0.00000000000000	0.00000000000000	
4.99331600000000	-20.99689400000000	715.42760999999996	53.32518900000000	0.15268700000000	0.00000000000000	0.14013300000000	0.00000000000000	0.00000000000000	0.00000000000000	0.00000000000000	0.00000000000000	0.00000000000000	0.00000000000000	22.12810700000000	0.00000000000000	0.00000000000000	0.00000000000000	0.00000000000000	
4.99498200000000	-21.63876000000000	716.44750899999997	53.36746700000000	0.15142100000000	0.00000000000000	0.14014400000000	0.00000000000000	0.00000000000000	0.00000000000000	0.00000000000000	0.00000000000000	0.00000000000000	0.00000000000000	22.20419100000000	0.00000000000000	0.00000000000000	0.00000000000000	0.00000000000000	
4.99665100000000	-22.28136100000000	717.50173199999995	53.41419100000000	0.15014900000000	0.00000000000000	0.14015600000000	0.00000000000000	0.00000000000000	0.00000000000000	0.00000000000000	0.00000000000000	0.00000000000000	0.00000000000000	22.28150900000000	0.00000000000000	0.00000000000000	0.00000000000000	0.00000000000000	
4.99831300000000	-22.92397500000000	718.59026600000004	53.46533500000000	0.14887200000000	0.00000000000000	0.14016900000000	0.00000000000000	0.00000000000000	0.00000000000000	0.00000000000000	0.00000000000000	0.00000000000000	0.00000000000000	22.35995900000000	0.00000000000000	0.00000000000000	0.00000000000000	0.00000000000000	
4.99998700000000	-23.56585800000000	719.71305700000005	53.52087600000000	0.14759200000000	0.00000000000000	0.14018200000000	0.00000000000000	0.00000000000000	0.00000000000000	0.00000000000000	0.00000000000000	0.00000000000000	0.00000000000000	22.43943300000000	0.00000000000000	0.00000000000000	0.00000000000000	0.00000000000000	
5.00164500000000	-24.20625000000000	720.87000300000000	53.58079300000000	0.14631200000000	0.00000000000000	0.14019500000000	0.00000000000000	0.00000000000000	0.00000000000000	0.00000000000000	0.00000000000000	0.00000000000000	0.00000000000000	22.51982600000000	0.00000000000000	0.00000000000000	0.00000000000000	0.00000000000000	
5.00331600000000	-24.84437400000000	722.06095300000004	53.64506800000000	0.14503500000000	0.00000000000000	0.14020900000000	0.00000000000000	0.00000000000000	0.00000000000000	0.00000000000000	0.00000000000000	0.00000000000000	0.00000000000000	22.60102800000000	0.00000000000000	0.00000000000000	0.00000000000000	0.00000000000000	
5.00498700000000	-25.47944400000000	723.28569800000002	53.71368400000000	0.14376200000000	0.00000000000000	0.14022300000000	0.00000000000000	0.00000000000000	0.00000000000000	0.00000000000000	0.00000000000000	0.00000000000000	0.00000000000000	22.68292900000000	0.00000000000000	0.00000000000000	0.00000000000000	0.00000000000000	
5.00664500000000	-26.11066800000000	724.54397300000005	53.78662700000000	0.14249600000000	0.00000000000000	0.14023800000000	0.00000000000000	0.00000000000000	0.00000000000000	0.00000000000000	0.00000000000000	0.00000000000000	0.00000000000000	22.76541700000000	0.00000000000000	0.00000000000000	0.00000000000000	0.00000000000000	
5.00831300000000	-26.73725200000000	725.83545100000003	53.86388300000000	0.14123900000000	0.00000000000000	0.14025200000000	0.00000000000000	0.00000000000000	0.00000000000000	0.00000000000000	0.00000000000000	0.00000000000000	0.00000000000000	22.84837700000000	0.00000000000000	0.00000000000000	0.00000000000000	0.00000000000000	
5.00998000000000	-27.35840000000000	727.15974000000006	53.94543800000000	0.13999500000000	0.00000000000000	0.14026500000000	0.00000000000000	0.00000000000000	0.00000000000000	0.00000000000000	0.00000000000000	0.00000000000000	0.00000000000000	22.93169300000000	0.00000000000000	0.00000000000000	0.00000000000000	0.00000000000000	
5.01165200000000	-27.97332600000000	728.51638000000003	54.03127900000000	0.13876400000000	0.00000000000000	0.14027900000000	0.00000000000000	0.00000000000000	0.00000000000000	0.00000000000000	0.00000000000000	0.00000000000000	0.00000000000000	23.01524900000000	0.00000000000000	0.00000000000000	0.00000000000000	0.00000000000000	
5.01331700000000	-28.58125100000000	729.90484100000003	54.12139300000000	0.13754900000000	0.00000000000000	0.14029100000000	0.00000000000000	0.00000000000000	0.00000000000000	0.00000000000000	0.00000000000000	0.00000000000000	0.00000000000000	23.09892400000000	0.00000000000000	0.00000000000000	0.00000000000000	0.00000000000000	
5.01498200000000	-29.18141000000000	731.32452300000000	54.21576600000000	0.13635300000000	0.00000000000000	0.14030300000000	0.00000000000000	0.00000000000000	0.00000000000000	0.00000000000000	0.00000000000000	0.00000000000000	0.00000000000000	23.18259800000000	0.00000000000000	0.00000000000000	0.00000000000000	0.00000000000000	
5.01665400000000	-29.77305300000000	732.77475000000004	54.31438100000000	0.13517700000000	0.00000000000000	0.14031400000000	0.00000000000000	0.00000000000000	0.00000000000000	0.00000000000000	0.00000000000000	0.00000000000000	0.00000000000000	23.26614900000000	0.00000000000000	0.00000000000000	0.00000000000000	0.00000000000000	
5.01831400000000	-30.35545200000000	734.25477000000001	54.41722300000000	0.13402400000000	0.00000000000000	0.14032500000000	0.00000000000000	0.00000000000000	0.00000000000000	0.00000000000000	0.00000000000000	0.00000000000000	0.00000000000000	23.34945200000000	0.00000000000000	0.00000000000000	0.00000000000000	0.00000000000000	
5.01998000000000	-30.92790400000000	735.76375499999995	54.52427300000000	0.13289400000000	0.00000000000000	0.14033400000000	0.00000000000000	0.00000000000000	0.00000000000000	0.00000000000000	0.00000000000000	0.00000000000000	0.00000000000000	23.43238400000000	0.00000000000000	0.00000000000000	0.00000000000000	0.00000000000000	
5.02164800000000	-31.48973200000000	737.30079999999998	54.63550900000000	0.13179100000000	0.00000000000000	0.14034200000000	0.00000000000000	0.00000000000000	0.00000000000000	0.00000000000000	0.00000000000000	0.00000000000000	0.00000000000000	23.51482000000000	0.00000000000000	0.00000000000000	0.00000000000000	0.00000000000000	
5.02331200000000	-32.04029000000000	738.86491899999999	54.75091000000000	0.13071400000000	0.00000000000000	0.14034800000000	0.00000000000000	0.00000000000000	0.00000000000000	0.00000000000000	0.00000000000000	0.00000000000000	0.00000000000000	23.59663200000000	0.00000000000000	0.00000000000000	0.00000000000000	0.00000000000000	
5.02498300000000	-32.57896500000000	740.45504900000003	54.87044800000000	0.12966700000000	0.00000000000000	0.14035300000000	0.00000000000000	0.00000000000000	0.00000000000000	0.00000000000000	0.00000000000000	0.00000000000000	0.00000000000000	23.67769500000000	0.00000000000000	0.00000000000000	0.00000000000000	0.00000000000000	
5.02665400000000	-33.10518200000000	742.07004700000005	54.99409500000000	0.12864900000000	0.00000000000000	0.14035700000000	0.00000000000000	0.00000000000000	0.00000000000000	0.00000000000000	0.00000000000000	0.00000000000000	0.00000000000000	23.75788300000000	0.00000000000000	0.00000000000000	0.00000000000000	0.00000000000000	
5.02832000000000	-33.61840400000000	743.70869000000005	55.12181800000000	0.12766300000000	0.00000000000000	0.14035900000000	0.00000000000000	0.00000000000000	0.00000000000000	0.00000000000000	0.00000000000000	0.00000000000000	0.00000000000000	23.83706900000000	0.00000000000000	0.00000000000000	0.00000000000000	0.00000000000000	
5.02998600000000	-34.11813600000000	745.36967800000002	55.25358100000000	0.12670800000000	0.00000000000000	0.14035900000000	0.00000000000000	0.00000000000000	0.00000000000000	0.00000000000000	0.00000000000000	0.00000000000000	0.00000000000000	23.91512900000000	0.00000000000000	0.00000000000000	0.00000000000000	0.00000000000000	
5.03165100000000	-34.60392700000000	747.05163000000005	55.38934400000000	0.12578600000000	0.00000000000000	0.14035800000000	0.00000000000000	0.00000000000000	0.00000000000000	0.00000000000000	0.00000000000000	0.00000000000000	0.00000000000000	23.99193800000000	0.00000000000000	0.00000000000000	0.00000000000000	0.00000000000000	
5.03331900000000	-35.07537100000000	748.75309000000004	55.52906300000000	0.12489700000000	0.00000000000000	0.14035500000000	0.00000000000000	0.00000000000000	0.00000000000000	0.00000000000000	0.00000000000000	0.00000000000000	0.00000000000000	24.06737300000000	0.00000000000000	0.00000000000000	0.00000000000000	0.00000000000000	
5.03498000000000	-35.53210900000000	750.47252400000002	55.67269000000000	0.12404200000000	0.00000000000000	0.14035000000000	0.00000000000000	0.00000000000000	0.00000000000000	0.00000000000000	0.00000000000000	0.00000000000000	0.00000000000000	24.14131300000000	0.00000000000000	0.00000000000000	0.00000000000000	0.00000000000000	
